<svg width="20" height="20" viewBox="0 0 20 20" fill="none" xmlns="http://www.w3.org/2000/svg">
<path d="M6.33333 2.5H4.5C3.39543 2.5 2.5 3.39543 2.5 4.5V6.33333C2.5 7.4379 3.39543 8.33333 4.5 8.33333H6.33333C7.4379 8.33333 8.33333 7.4379 8.33333 6.33333V4.5C8.33333 3.39543 7.4379 2.5 6.33333 2.5Z" stroke="#2D78F5" stroke-width="2" stroke-linecap="round" stroke-linejoin="round"/>
<path d="M15.5 2.5H13.6666C12.5621 2.5 11.6666 3.39543 11.6666 4.5V6.33333C11.6666 7.4379 12.5621 8.33333 13.6666 8.33333H15.5C16.6045 8.33333 17.5 7.4379 17.5 6.33333V4.5C17.5 3.39543 16.6045 2.5 15.5 2.5Z" stroke="#2D78F5" stroke-width="2" stroke-linecap="round" stroke-linejoin="round"/>
<path d="M15.5 11.6666H13.6666C12.5621 11.6666 11.6666 12.5621 11.6666 13.6666V15.5C11.6666 16.6045 12.5621 17.5 13.6666 17.5H15.5C16.6045 17.5 17.5 16.6045 17.5 15.5V13.6666C17.5 12.5621 16.6045 11.6666 15.5 11.6666Z" stroke="#2D78F5" stroke-width="2" stroke-linecap="round" stroke-linejoin="round"/>
<path d="M6.33333 11.6666H4.5C3.39543 11.6666 2.5 12.5621 2.5 13.6666V15.5C2.5 16.6045 3.39543 17.5 4.5 17.5H6.33333C7.4379 17.5 8.33333 16.6045 8.33333 15.5V13.6666C8.33333 12.5621 7.4379 11.6666 6.33333 11.6666Z" stroke="#2D78F5" stroke-width="2" stroke-linecap="round" stroke-linejoin="round"/>
</svg>
