<svg width="18" height="18" viewBox="0 0 18 18" fill="none" xmlns="http://www.w3.org/2000/svg">
<path fill-rule="evenodd" clip-rule="evenodd" d="M16 16.1719H14.5566C14.8673 15.9357 15.1623 15.6794 15.4395 15.4004C16.2506 14.6005 16.877 13.6506 17.3164 12.5508C17.7727 11.4674 18 10.2833 18 9C18 7.73333 17.7727 6.54922 17.3164 5.44922C16.877 4.34937 16.2506 3.39079 15.4395 2.57422C14.6283 1.77439 13.6726 1.14237 12.5742 0.675779C11.4926 0.225805 10.3014 0 9 0C7.71553 0 6.52435 0.225805 5.42578 0.675779C4.32736 1.14237 3.37173 1.77439 2.56055 2.57422C1.74936 3.3908 1.11453 4.34936 0.658203 5.44922C0.218767 6.54922 1.13226e-07 7.73333 0 9C0 10.2833 0.218767 11.4674 0.658203 12.5508C1.11453 13.6506 1.74936 14.6005 2.56055 15.4004C2.83771 15.6794 3.13266 15.9357 3.44336 16.1719H2V18H16V16.1719ZM7.66211 15.7578C6.90366 15.6194 6.20076 15.358 5.55273 14.9746C4.53887 14.3747 3.73604 13.5584 3.14453 12.5254C2.56988 11.4921 2.28125 10.3167 2.28125 9C2.28125 7.68333 2.56988 6.50794 3.14453 5.47461C3.73604 4.44159 4.53887 3.62526 5.55273 3.02539C6.20066 2.64208 6.90379 2.38253 7.66211 2.24414V15.7578ZM10.3379 2.24414C11.1036 2.38199 11.807 2.64018 12.4473 3.02539C13.4611 3.62526 14.2555 4.4416 14.8301 5.47461C15.4216 6.50794 15.7188 7.68333 15.7188 9C15.7188 10.3167 15.4216 11.4921 14.8301 12.5254C14.2555 13.5584 13.4611 14.3747 12.4473 14.9746C11.8069 15.3599 11.1037 15.62 10.3379 15.7578V2.24414Z" fill="white"/>
</svg>
